<svg width="41" height="41" viewBox="0 0 41 41" fill="none" xmlns="http://www.w3.org/2000/svg">
<path d="M33.4469 11.5312H7.55298C7.23768 11.5313 6.93344 11.6475 6.69849 11.8578C6.46355 12.0681 6.31439 12.3576 6.27957 12.671L4.00179 33.171C3.98189 33.3501 4 33.5314 4.05492 33.703C4.10983 33.8746 4.20034 34.0327 4.32051 34.167C4.44069 34.3013 4.58783 34.4087 4.75234 34.4822C4.91685 34.5557 5.09501 34.5937 5.27521 34.5937H35.7247C35.9049 34.5937 36.0831 34.5557 36.2476 34.4822C36.4121 34.4087 36.5592 34.3013 36.6794 34.167C36.7996 34.0327 36.8901 33.8746 36.945 33.703C36.9999 33.5314 37.018 33.3501 36.9981 33.171L34.7204 12.671C34.6855 12.3576 34.5364 12.0681 34.3014 11.8578C34.0665 11.6475 33.7622 11.5313 33.4469 11.5312Z" stroke="black" stroke-width="4" stroke-linecap="round" stroke-linejoin="round"/>
<path d="M14.0938 11.5312C14.0938 9.83221 14.7687 8.20275 15.9701 7.00135C17.1715 5.79994 18.801 5.125 20.5 5.125C22.199 5.125 23.8285 5.79994 25.0299 7.00135C26.2313 8.20275 26.9062 9.83221 26.9062 11.5312" stroke="black" stroke-width="4" stroke-linecap="round" stroke-linejoin="round"/>
</svg>
