<svg width="65" height="65" viewBox="0 0 65 65" fill="none" xmlns="http://www.w3.org/2000/svg">
<path d="M32.5 42.6562C38.1091 42.6562 42.6562 38.1091 42.6562 32.5C42.6562 26.8909 38.1091 22.3438 32.5 22.3438C26.8909 22.3438 22.3438 26.8909 22.3438 32.5C22.3438 38.1091 26.8909 42.6562 32.5 42.6562Z" stroke="black" stroke-width="7" stroke-miterlimit="10"/>
<path d="M43.6719 9.14062H21.3281C14.5972 9.14062 9.14062 14.5972 9.14062 21.3281V43.6719C9.14062 50.4028 14.5972 55.8594 21.3281 55.8594H43.6719C50.4028 55.8594 55.8594 50.4028 55.8594 43.6719V21.3281C55.8594 14.5972 50.4028 9.14062 43.6719 9.14062Z" stroke="black" stroke-width="7" stroke-linecap="round" stroke-linejoin="round"/>
<path d="M45.7031 22.3438C47.3859 22.3438 48.75 20.9796 48.75 19.2969C48.75 17.6141 47.3859 16.25 45.7031 16.25C44.0204 16.25 42.6562 17.6141 42.6562 19.2969C42.6562 20.9796 44.0204 22.3438 45.7031 22.3438Z" fill="black"/>
</svg>
