<svg width="77" height="77" viewBox="0 0 77 77" fill="none" xmlns="http://www.w3.org/2000/svg">
<path d="M69.7812 19.25H7.21875C5.88981 19.25 4.8125 20.3273 4.8125 21.6562V55.3438C4.8125 56.6727 5.88981 57.75 7.21875 57.75H69.7812C71.1102 57.75 72.1875 56.6727 72.1875 55.3438V21.6562C72.1875 20.3273 71.1102 19.25 69.7812 19.25Z" stroke="black" stroke-width="2" stroke-linecap="round" stroke-linejoin="round"/>
<path d="M38.5 48.125C43.8157 48.125 48.125 43.8157 48.125 38.5C48.125 33.1843 43.8157 28.875 38.5 28.875C33.1843 28.875 28.875 33.1843 28.875 38.5C28.875 43.8157 33.1843 48.125 38.5 48.125Z" stroke="black" stroke-width="2" stroke-linecap="round" stroke-linejoin="round"/>
<path d="M52.9375 19.25L72.1875 36.0938" stroke="black" stroke-width="2" stroke-linecap="round" stroke-linejoin="round"/>
<path d="M52.9375 57.75L72.1875 40.9062" stroke="black" stroke-width="2" stroke-linecap="round" stroke-linejoin="round"/>
<path d="M24.0625 19.25L4.8125 36.0938" stroke="black" stroke-width="2" stroke-linecap="round" stroke-linejoin="round"/>
<path d="M24.0625 57.75L4.8125 40.9062" stroke="black" stroke-width="2" stroke-linecap="round" stroke-linejoin="round"/>
</svg>
