<svg width="54" height="50" viewBox="0 0 54 50" fill="none" xmlns="http://www.w3.org/2000/svg">
<path d="M12.75 20.4932H25.25" stroke="black" stroke-width="2" stroke-linecap="round" stroke-linejoin="round"/>
<path d="M12.75 26.3241H25.25" stroke="black" stroke-width="2" stroke-linecap="round" stroke-linejoin="round"/>
<path d="M12.75 32.1552H19" stroke="black" stroke-width="2" stroke-linecap="round" stroke-linejoin="round"/>
<path d="M24.6028 42.3595H3.375C2.9606 42.3595 2.56317 42.2059 2.27015 41.9325C1.97712 41.6591 1.8125 41.2884 1.8125 40.9017V11.7465C1.8125 11.3598 1.97712 10.989 2.27015 10.7157C2.56317 10.4423 2.9606 10.2887 3.375 10.2887H34.625C35.0394 10.2887 35.4368 10.4423 35.7299 10.7157C36.0229 10.989 36.1875 11.3598 36.1875 11.7465V31.5513C36.1875 31.7428 36.1471 31.9323 36.0686 32.1092C35.99 32.2861 35.8749 32.4468 35.7299 32.5821L25.7076 41.9325C25.5626 42.0679 25.3903 42.1753 25.2007 42.2485C25.0112 42.3218 24.808 42.3595 24.6028 42.3595V42.3595Z" stroke="black" stroke-width="2" stroke-linecap="round" stroke-linejoin="round"/>
<path d="M36.0461 32.1537H25.25V42.2268" stroke="black" stroke-width="2" stroke-linecap="round" stroke-linejoin="round"/>
</svg>
