<svg width="32" height="32" viewBox="0 0 32 32" fill="none" xmlns="http://www.w3.org/2000/svg">
<path d="M16.1186 16L15.9858 28.8513" stroke="black" stroke-width="2" stroke-linecap="round" stroke-linejoin="round"/>
<path d="M27.4858 21.9165V10.0835C27.4858 9.90638 27.4388 9.73246 27.3496 9.57951C27.2603 9.42655 27.1321 9.30004 26.9779 9.2129L16.4779 3.27812C16.3278 3.19327 16.1583 3.14868 15.9858 3.14868C15.8134 3.14868 15.6439 3.19327 15.4938 3.27812L4.99378 9.2129C4.83962 9.30004 4.71135 9.42655 4.62211 9.57951C4.53287 9.73246 4.48584 9.90638 4.48584 10.0835V21.9165C4.48584 22.0936 4.53287 22.2675 4.62211 22.4205C4.71135 22.5734 4.83962 22.7 4.99378 22.7871L15.4938 28.7219C15.6439 28.8067 15.8134 28.8513 15.9858 28.8513C16.1583 28.8513 16.3278 28.8067 16.4779 28.7219L26.9779 22.7871C27.1321 22.7 27.2603 22.5734 27.3496 22.4205C27.4388 22.2675 27.4858 22.0936 27.4858 21.9165V21.9165Z" stroke="black" stroke-width="2" stroke-linecap="round" stroke-linejoin="round"/>
<path d="M27.3488 9.57837L16.1184 16L4.62354 9.577" stroke="black" stroke-width="2" stroke-linecap="round" stroke-linejoin="round"/>
<path d="M22.1276 18.5639V12.5639L10.5303 6.08362" stroke="black" stroke-width="2" stroke-linecap="round" stroke-linejoin="round"/>
</svg>
