<svg width="29" height="29" viewBox="0 0 29 29" fill="none" xmlns="http://www.w3.org/2000/svg">
<path d="M13.1176 1.01942L3.03578 3.03578L1.01942 13.1176C0.987133 13.279 0.995202 13.4459 1.04291 13.6035C1.09062 13.7611 1.17648 13.9044 1.29289 14.0208L14.3495 27.0774C14.4423 27.1703 14.5526 27.2439 14.6739 27.2942C14.7952 27.3444 14.9253 27.3703 15.0566 27.3703C15.1879 27.3703 15.318 27.3444 15.4393 27.2942C15.5606 27.2439 15.6708 27.1703 15.7637 27.0774L27.0774 15.7637C27.1703 15.6708 27.2439 15.5606 27.2942 15.4393C27.3444 15.318 27.3703 15.1879 27.3703 15.0566C27.3703 14.9253 27.3444 14.7952 27.2942 14.6739C27.2439 14.5526 27.1703 14.4423 27.0774 14.3495L14.0208 1.29289C13.9044 1.17648 13.7611 1.09062 13.6035 1.04291C13.4459 0.995202 13.279 0.987133 13.1176 1.01942V1.01942Z" stroke="black" stroke-width="2" stroke-linecap="round" stroke-linejoin="round"/>
</svg>
